Coordinates
version=1
nRows=16
nColumns=36
inDegrees=yes

Units are S.I. units (second, meters, Newtons, ...)
If the header above contains a line with 'inDegrees', this indicates whether rotational values are in degrees (yes) or radians (no).

endheader
time	pelvis_tilt	pelvis_list	pelvis_rotation	pelvis_tx	pelvis_ty	pelvis_tz	hip_flexion_r	hip_adduction_r	hip_rotation_r	knee_angle_r	knee_angle_r_beta	ankle_angle_r	subtalar_angle_r	mtp_angle_r	hip_flexion_l	hip_adduction_l	hip_rotation_l	knee_angle_l	knee_angle_l_beta	ankle_angle_l	subtalar_angle_l	mtp_angle_l	lumbar_extension	lumbar_bending	lumbar_rotation	arm_flex_r	arm_add_r	arm_rot_r	elbow_flex_r	pro_sup_r	arm_flex_l	arm_add_l	arm_rot_l	elbow_flex_l	pro_sup_l
      3.06666670	     -6.77085610	     -1.00916822	     -0.53902883	      0.56802411	      1.13929832	      0.07622466	     27.82594315	     -5.02227203	    -12.91123785	     21.96928653	      0.38343638	     -8.66300084	      6.30710778	     -7.49999987	     25.20536252	     -9.77644469	    -16.26886316	     16.60723654	      0.28985096	    -19.07723377	      3.37327250	     -7.49999987	     -8.64342344	      3.95946644	     -0.32010266	    -16.29083195	    -10.64304389	      6.74884983	     39.57751872	     80.32830972	    -22.86411583	    -18.07441856	     13.46113187	     39.14522140	     79.30553121
      3.08333330	     -6.23244871	     -1.09050684	     -0.71895231	      0.58119751	      1.10545039	      0.07465351	     27.41914982	     -4.92980661	    -13.27599068	     21.91841822	      0.38254856	    -10.15298247	      6.04556154	     -7.49999987	     26.48082331	    -10.26265186	    -15.82871236	     20.49260708	      0.35766347	    -19.00274442	      3.43060264	     -7.49999987	     -9.45810097	      4.21103122	     -0.37710620	    -15.24641120	    -10.64514310	      6.73817114	     38.28060366	     79.48709058	    -22.32146359	    -17.85828303	     13.73365928	     38.64186422	     78.35370380
      3.10000000	     -5.61264485	     -1.10851505	     -0.76256104	      0.59165415	      1.05022556	      0.07778327	     27.71973719	     -4.79200570	    -13.47648741	     23.38094285	      0.40807443	     -8.36534079	      4.06815671	     -7.49999987	     28.62532605	    -10.89197248	    -14.50300303	     26.23366977	      0.45786391	    -14.82187469	      2.62920283	     -7.49999987	    -10.52938555	      4.21253283	     -0.72273044	    -13.41126202	    -10.66281944	      7.61285965	     36.82771901	     78.39477858	    -21.56121030	    -18.12272376	     14.23037471	     37.95372214	     76.64268894
      3.11666670	     -4.49266811	     -1.80567570	     -0.97952988	      0.61405749	      1.00507410	      0.07494450	     29.02573110	     -4.32599019	    -13.35876514	     29.46088395	      0.51418943	     -2.18459640	     -0.14815237	     -7.49999987	     31.35099900	    -12.47348702	    -13.33562889	     34.40149669	      0.60041938	     -7.01473309	      1.04805167	     -7.49999987	    -12.31172522	      5.03383625	     -0.20980351	    -11.54635809	    -10.84797843	      7.45509968	     35.48373849	     76.09045094	    -19.90069629	    -17.84377571	     13.93295119	     37.07701755	     74.37641922
      3.13333330	     -4.14573707	     -2.40978910	     -0.58240696	      0.62117707	      0.97308189	      0.07208845	     32.56793921	     -4.43970905	    -12.67458016	     39.14286359	      0.68317185	      6.52996079	     -5.76678964	     -7.49999987	     35.15799159	    -13.76555726	    -12.12159450	     44.02088813	      0.76830944	      3.81718948	      0.54025337	     -7.49999987	    -13.93967106	      5.72570964	     -0.23031137	     -9.17906842	    -10.99553014	      7.48166034	     33.72258235	     75.41882969	    -16.90831678	    -17.61074881	     13.98084821	     35.15500464	     73.63975148
      3.15000000	     -3.01163211	     -2.73403222	     -0.58081538	      0.64572487	      0.93918693	      0.06585403	     35.62969491	     -4.84196415	    -11.40216028	     50.32283082	      0.87829909	     14.99408017	    -10.69936639	     -7.49999987	     37.44409907	    -14.58575779	    -10.72414436	     54.33416710	      0.94831011	     14.88393843	     -1.42774551	     -7.49999987	    -15.96507822	      6.19575991	      0.32408968	     -5.89823978	    -11.45220165	      8.39042287	     30.57074270	     75.01388271	    -12.61804975	    -17.12703069	     15.58371242	     31.28162222	     72.85304743
      3.16666670	     -1.72219426	     -2.93565718	     -0.46379240	      0.65485887	      0.90482944	      0.06638133	     38.64607394	     -5.30989185	    -10.55485630	     61.39246006	      1.07150056	     23.00171975	    -13.20538724	     -7.49999987	     39.90040539	    -15.18706638	     -9.05866571	     64.82579602	      1.13142358	     23.55174394	     -3.46385389	     -7.49999987	    -19.73256883	      6.21735941	      1.57072202	     -2.31814064	    -11.93994278	      8.21254744	     29.64162519	     74.98837427	     -7.96965162	    -17.09311930	     15.46992360	     30.23812989	     72.59953363
      3.18333330	     -1.79624145	     -3.48555780	     -0.08604344	      0.64272795	      0.85918470	      0.07185255	     44.93999392	     -5.53061803	     -9.99260222	     73.19695048	      1.27752779	     29.83935208	    -14.21497674	     -7.49999987	     46.39340447	    -15.28433816	     -5.15603875	     76.21742851	      1.33024507	     29.51941831	     -6.36834728	     -7.49999987	    -23.75211838	      6.34406040	      3.03217400	      2.56135245	    -12.83050437	      8.24191167	     30.30527705	     75.46911437	     -2.05408966	    -17.74726284	     15.52235440	     30.39056895	     72.59788284
      3.20000000	     -2.38998066	     -3.47338122	      0.25876910	      0.62999234	      0.83113781	      0.06567286	     51.02934804	     -6.40374487	     -9.17145001	     81.89538998	      1.42934420	     33.71398017	    -14.09234366	     -7.49999987	     53.04630491	    -13.85102946	     -1.93142380	     84.92135119	      1.48215718	     31.94149819	     -8.73012771	     -7.49999987	    -28.71430022	      6.05496319	      4.11130462	      9.83759988	    -13.93286308	      8.32098280	     31.15627874	     76.01582440	      5.84991191	    -18.15545312	     16.04575280	     31.14478846	     72.53265042
      3.21666670	     -2.34133013	     -3.03600991	      0.34054979	      0.64161843	      0.81670455	      0.06300011	     54.23470354	     -7.31804145	     -8.16930928	     87.11037311	      1.52036282	     35.45505071	    -13.53508598	     -7.49999987	     56.02026136	    -12.87715103	     -0.91049504	     89.32625202	      1.55903721	     32.81083443	    -10.46176739	     -7.49999987	    -34.13451074	      5.17541533	      5.49861909	     17.10552257	    -14.92281254	      6.71455490	     32.19991768	     81.71586538	     15.62465599	    -18.57032600	     23.52459807	     30.23298883	     67.91888824
      3.23333330	     -3.34424807	     -2.60952838	      0.60612416	      0.64637162	      0.77738715	      0.06471264	     58.47325429	     -8.70401255	     -7.45557898	     92.40222211	      1.61272301	     37.19628281	    -12.76296587	     -7.49999987	     60.32223720	    -12.34359761	      0.19209410	     94.41554083	      1.64786205	     34.87201748	    -10.15022476	     -7.49999987	    -37.58555051	      4.66992220	      5.52722066	     24.14151037	    -15.65387661	      6.57168353	     34.35961406	     81.65465726	     22.62597241	    -18.85676443	     23.12583730	     32.51647636	     67.72707733
      3.25000000	     -5.37687815	     -2.33589964	      1.09891973	      0.65541086	      0.73895565	      0.06135703	     63.90746205	    -10.39497168	     -6.60819703	     98.43776441	      1.71806310	     39.70928311	    -11.47910999	     -7.49999987	     65.89640838	    -11.77895825	      1.21840872	     99.95811596	      1.74459824	     37.54861677	     -9.01947661	     -7.49999987	    -38.69655091	      4.76381524	      4.74943994	     29.40522728	    -16.07293234	      5.92176732	     37.60864360	     81.67866041	     27.73152297	    -19.29612889	     23.22792264	     34.83188417	     67.77983220
      3.26666670	     -8.44026511	     -2.15028079	      1.66198850	      0.66272703	      0.70352236	      0.05602586	     69.89257854	    -12.21897346	     -5.82259137	    103.93311454	      1.81397505	     42.48690517	    -10.42538264	     -7.49999987	     72.49224054	    -11.27434693	      1.89718746	    105.26287069	      1.83718367	     39.64916324	     -8.35461817	     -7.49999987	    -37.77718741	      5.05593295	      3.88983432	     32.26444012	    -16.45841762	      4.51156896	     42.48573404	     81.85955942	     30.89975519	    -19.77193825	     23.33324591	     38.31172110	     68.10021553
      3.28333330	    -11.16101308	     -1.95824259	      2.20952618	      0.65516605	      0.68620993	      0.05492313	     74.61968151	    -13.78780201	     -5.49889926	    107.02803519	      1.86799161	     44.29422746	     -9.77137055	     -7.49999987	     77.41355993	    -10.90552813	      1.90764310	    108.30510642	      1.89028070	     41.26808093	     -6.78058202	     -7.49999987	    -37.83563536	      4.99371136	      3.40442450	     34.94004858	    -16.65859185	      1.43366739	     48.60102782	     85.81205725	     34.90839087	    -19.84588660	     22.53215282	     42.41890108	     72.72345111
      3.30000000	    -13.95822725	     -1.77866022	      2.74633091	      0.65520083	      0.66643750	      0.04779807	     78.92115824	    -16.04711914	     -5.41257863	    109.46558957	      1.91053496	     45.77629525	     -8.16407794	     -7.49999987	     81.97461604	    -10.02470527	      1.85259805	    110.71980484	      1.93242514	     42.69779632	     -5.56798771	     -7.49999987	    -37.19782168	      5.27308825	      2.09866769	     37.71468742	    -17.08261362	      2.08201906	     52.53618429	     85.88068573	     37.75831798	    -19.89826585	     22.40270785	     45.39912326	     72.94922562
      3.31666670	    -15.43805974	     -1.44292145	      3.06229873	      0.65565093	      0.65995703	      0.05167667	     81.06514826	    -17.07568721	     -5.10858129	    110.51392835	      1.92883192	     46.76641300	     -6.59695034	     -7.49999987	     83.91732597	     -9.79804100	      1.29920134	    111.58834631	      1.94758405	     43.00567406	     -5.16063087	     -7.49999987	    -38.91234967	      4.86045358	      1.49500806	     40.76608571	    -17.39649126	      2.85806930	     56.94586045	     85.94713397	     41.02775377	    -20.04973747	     21.91649179	     49.25818024	     73.30479501
